<svg preserveAspectRatio="none" width="100%" height="100%" overflow="visible" style="display: block;" viewBox="0 0 16 16" fill="none" xmlns="http://www.w3.org/2000/svg">
<g id="Frame">
<path id="Vector" d="M4.06041 6.88883L5.07056 7.89899L3.25228 9.71727C2.41544 10.5541 2.41544 11.9109 3.25228 12.7477C4.07272 13.5681 5.39291 13.5842 6.23292 12.796L6.28273 12.7477L8.10102 10.9294L9.11117 11.9396L7.29289 13.7579C5.89816 15.1526 3.63686 15.1526 2.24213 13.7579C0.868219 12.384 0.847719 10.1691 2.18061 8.77013L2.24213 8.70711L4.06041 6.88883ZM3.65634 2.64619L13.3538 12.3437L12.3437 13.3538L2.64619 3.65634L3.65634 2.64619ZM13.7579 2.24213C15.1318 3.61603 15.1523 5.83086 13.8194 7.22988L13.7579 7.29289L11.9396 9.11117L10.9294 8.10102L12.7477 6.28274C13.5846 5.44591 13.5846 4.08913 12.7477 3.25228C11.9273 2.43186 10.6071 2.41577 9.76708 3.20402L9.71727 3.2523L7.89898 5.07056L6.88883 4.06041L8.70711 2.24213C10.1018 0.847406 12.3631 0.847406 13.7579 2.24213Z" fill="var(--fill-0, #1A1A1A)"/>
</g>
</svg>
