<svg width="32" height="32" viewBox="0 0 32 32" fill="none" xmlns="http://www.w3.org/2000/svg">
<g id="Frame 483517">
<circle id="Ellipse 56" cx="16" cy="16" r="16" fill="#051F44"/>
<g id="Group">
<path id="Vector" d="M10.2649 19.9547C9.4396 19.9547 8.706 19.5308 8.29885 18.8195C7.8917 18.1082 7.90087 17.2641 8.32453 16.5618L15.3744 4.84958L15.3836 4.83685C15.7486 4.30381 16.319 4 16.948 4C17.5221 4 18.0851 4.25833 18.4537 4.69131C18.8132 5.11519 18.9581 5.66097 18.8591 6.22857L17.3662 14.819L14.5785 16.218L15.8183 9.01019L10.9527 17.3296H13.5771L13.0801 19.9547H10.2667H10.2649Z" fill="url(#paint0_linear_3446_5345)"/>
<path id="Vector_2" d="M14.9668 28.0001C14.3928 28.0001 13.8297 27.7418 13.4611 27.3088C13.1016 26.8849 12.9568 26.3392 13.0558 25.7716L14.5487 17.1811L17.3364 15.7821L16.0966 22.99L20.9622 14.6706H18.3377L18.8348 12.0454H21.6481C22.4734 12.0454 23.207 12.4693 23.6142 13.1806C24.0213 13.8919 24.0122 14.7361 23.5885 15.4383L16.5386 27.1506L16.5294 27.1633C16.1644 27.6963 15.5941 28.0001 14.965 28.0001H14.9668Z" fill="url(#paint1_linear_3446_5345)"/>
<path id="Vector_3" opacity="0.15" d="M13.3351 18.6112H10.4172C9.51857 18.6112 8.9702 17.6324 9.44338 16.8756L16.2897 5.90924C16.6272 5.36711 17.4727 5.67274 17.381 6.3022L16.0458 15.4784L14.5804 16.2152L15.8202 9.00741L10.9546 17.3268H13.5791L13.337 18.6094L13.3351 18.6112Z" fill="white"/>
<path id="Vector_4" opacity="0.15" d="M18.5897 13.375H21.5076C22.4063 13.375 22.9547 14.3538 22.4815 15.1106L15.6333 26.0769C15.2958 26.6191 14.4504 26.3134 14.5421 25.684L15.8772 16.5077L17.3426 15.7709L16.1028 22.9788L20.9684 14.6594H18.344L18.5861 13.3768L18.5897 13.375Z" fill="white"/>
</g>
</g>
<defs>
<linearGradient id="paint0_linear_3446_5345" x1="13.4432" y1="17.0894" x2="13.4432" y2="1.1347" gradientUnits="userSpaceOnUse">
<stop stop-color="#0058F1"/>
<stop offset="0.53" stop-color="#00B1FF"/>
<stop offset="1" stop-color="#03A9FD"/>
</linearGradient>
<linearGradient id="paint1_linear_3446_5345" x1="18.4698" y1="28.0001" x2="18.4698" y2="12.0454" gradientUnits="userSpaceOnUse">
<stop stop-color="#FFAB11"/>
<stop offset="0.09" stop-color="#FDA41A"/>
<stop offset="0.24" stop-color="#FA9232"/>
<stop offset="0.43" stop-color="#F4745B"/>
<stop offset="0.65" stop-color="#ED4B92"/>
<stop offset="0.9" stop-color="#E317D9"/>
<stop offset="1" stop-color="#DF00F9"/>
</linearGradient>
</defs>
</svg>
