<svg width="40" height="40" viewBox="0 0 40 40" fill="none" xmlns="http://www.w3.org/2000/svg">
<path d="M15.6909 14.5281C13.6667 14.5281 11.7515 14.2164 10.2987 13.6504C8.61318 12.9937 7.68506 12.0281 7.68506 10.932C7.68506 9.83594 8.61318 8.87031 10.2987 8.21367C11.7515 7.64766 13.6663 7.33594 15.6909 7.33594C17.7155 7.33594 19.6304 7.64766 21.0831 8.21367C22.7687 8.87031 23.6968 9.83594 23.6968 10.932C23.6968 12.0281 22.7687 12.9937 21.0831 13.6504C19.6304 14.2164 17.7155 14.5281 15.6909 14.5281ZM15.6909 8.89844C11.5222 8.89844 9.24795 10.2418 9.24795 10.932C9.24795 11.6223 11.5222 12.9656 15.6909 12.9656C19.8597 12.9656 22.1339 11.6223 22.1339 10.932C22.1339 10.2418 19.8597 8.89844 15.6909 8.89844ZM25.7663 23.5301C23.9882 23.5301 22.305 23.2559 21.0261 22.7574C20.3562 22.4965 19.819 22.182 19.4296 21.8234C18.812 21.2547 18.6823 20.6773 18.6823 20.293C18.6823 19.9086 18.812 19.3313 19.4296 18.7625C19.819 18.4039 20.3562 18.0895 21.0261 17.8285C22.3046 17.3305 23.9882 17.0559 25.7663 17.0559C27.5444 17.0559 29.2276 17.3301 30.5065 17.8285C31.1765 18.0895 31.7136 18.4039 32.103 18.7625C32.7206 19.3313 32.8503 19.9086 32.8503 20.293C32.8503 20.6773 32.7206 21.2547 32.103 21.8234C31.7136 22.182 31.1765 22.4965 30.5065 22.7574C29.228 23.2555 27.5444 23.5301 25.7663 23.5301ZM25.7663 18.6187C22.1237 18.6187 20.2452 19.7926 20.2452 20.293C20.2452 20.7934 22.1237 21.9672 25.7663 21.9672C29.4089 21.9672 31.2874 20.7934 31.2874 20.293C31.2874 19.7926 29.4089 18.6187 25.7663 18.6187Z" fill="#FFDB11"/>
<path d="M15.6909 8.89844C11.5222 8.89844 9.24795 10.2418 9.24795 10.932C9.24795 11.6223 11.5222 12.9656 15.6909 12.9656C19.8597 12.9656 22.1339 11.6223 22.1339 10.932C22.1339 10.2418 19.8597 8.89844 15.6909 8.89844Z" fill="#FFDB11"/>
<path d="M25.7663 18.6187C22.1237 18.6187 20.2452 19.7926 20.2452 20.293C20.2452 20.7934 22.1237 21.9672 25.7663 21.9672C29.4089 21.9672 31.2874 20.7934 31.2874 20.293C31.2874 19.7926 29.4089 18.6187 25.7663 18.6187Z" fill="#FFDB11"/>
<path d="M25.8465 24.5892C23.1539 24.5892 20.8125 24.0045 19.6117 23.1432C19.3059 22.924 18.8809 23.1373 18.8809 23.5135V25.0838H18.8812C18.9031 26.5756 22.0129 27.7822 25.8469 27.7822C29.6809 27.7822 32.7906 26.5756 32.8125 25.0838H32.8129V23.5135C32.8129 23.1373 32.3875 22.9236 32.082 23.1432C30.8812 24.0045 28.5395 24.5892 25.8473 24.5892H25.8465Z" fill="#FFDB11"/>
<path d="M25.8466 28.9294C23.154 28.9294 20.8126 28.3446 19.6118 27.4833C19.306 27.2642 18.881 27.4774 18.881 27.8536V29.4239H18.8813C18.9032 30.9157 22.013 32.1224 25.847 32.1224C29.681 32.1224 32.7907 30.9157 32.8126 29.4239H32.813V27.8536C32.813 27.4774 32.3876 27.2638 32.0821 27.4833C30.8813 28.3446 28.5396 28.9294 25.8474 28.9294H25.8466ZM23.5989 15.0696V14.2239C23.5989 13.7966 23.1161 13.5544 22.7692 13.8036C21.406 14.7814 18.7478 15.445 15.6915 15.445C12.6353 15.445 9.97666 14.7814 8.61377 13.8036C8.2665 13.5548 7.78408 13.797 7.78408 14.2239V16.0064H7.78447C7.80908 17.6997 11.3396 19.0696 15.6915 19.0696C16.0974 19.0696 16.4958 19.0575 16.8853 19.0345C17.1853 19.0169 17.4513 18.8392 17.5899 18.5728C18.2329 17.3396 20.2458 16.3439 22.8665 15.929C23.2888 15.8622 23.5993 15.4966 23.5993 15.0692L23.5989 15.0696ZM17.4767 20.8517C17.4767 20.4345 17.1267 20.1044 16.7099 20.1251C16.3763 20.1415 16.0364 20.1501 15.6911 20.1501C12.6345 20.1501 9.97627 19.4864 8.61338 18.5087C8.26611 18.2599 7.78369 18.5021 7.78369 18.929V20.7114H7.78408C7.80869 22.4048 11.3392 23.7747 15.6911 23.7747C16.0572 23.7747 16.4232 23.7649 16.7888 23.7454C17.1747 23.7247 17.4767 23.4052 17.4767 23.0185V20.8513V20.8517ZM17.4767 25.6165C17.4767 25.1884 17.1196 24.845 16.6919 24.8657C16.3642 24.8817 16.0302 24.8899 15.6911 24.8899C12.6345 24.8899 9.97627 24.2263 8.61338 23.2485C8.26611 22.9997 7.78369 23.2419 7.78369 23.6689V25.4513H7.78408C7.80869 27.1446 11.3392 28.5146 15.6911 28.5146C16.0556 28.5146 16.4146 28.5048 16.7661 28.4864C17.1649 28.4653 17.4767 28.1349 17.4767 27.7357V25.6165Z" fill="#FFDB11"/>
</svg>
