<svg width="14" height="14" viewBox="0 0 14 14" fill="none" xmlns="http://www.w3.org/2000/svg">
<g clip-path="url(#clip0_7327_17574)">
<path d="M7 0C5.61553 0 4.26216 0.410543 3.11101 1.17971C1.95987 1.94888 1.06266 3.04213 0.532846 4.32122C0.003033 5.6003 -0.13559 7.00777 0.134506 8.36563C0.404603 9.7235 1.07129 10.9708 2.05026 11.9497C3.02922 12.9287 4.2765 13.5954 5.63437 13.8655C6.99224 14.1356 8.3997 13.997 9.67879 13.4672C10.9579 12.9373 12.0511 12.0401 12.8203 10.889C13.5895 9.73785 14 8.38447 14 7C13.998 5.1441 13.2599 3.36479 11.9475 2.05247C10.6352 0.74015 8.8559 0.0020073 7 0V0ZM7 12.8333C5.84628 12.8333 4.71846 12.4912 3.75918 11.8502C2.79989 11.2093 2.05222 10.2982 1.61071 9.23232C1.16919 8.16642 1.05368 6.99353 1.27876 5.86197C1.50384 4.73042 2.05941 3.69102 2.87521 2.87521C3.69102 2.0594 4.73042 1.50383 5.86198 1.27875C6.99353 1.05367 8.16642 1.16919 9.23232 1.6107C10.2982 2.05221 11.2093 2.79989 11.8502 3.75917C12.4912 4.71846 12.8333 5.84628 12.8333 7C12.8316 8.54658 12.2165 10.0293 11.1229 11.1229C10.0293 12.2165 8.54658 12.8316 7 12.8333Z" fill="#999999"/>
<path d="M6.58736 8.5791C6.69675 8.6885 6.84513 8.74996 6.99984 8.74996C7.15455 8.74996 7.30292 8.6885 7.41232 8.5791C7.52171 8.46971 7.58317 8.32133 7.58317 8.16662C7.60485 7.99474 7.66478 7.8299 7.75857 7.68423C7.85235 7.53855 7.97759 7.41576 8.12509 7.32487C8.40976 7.16759 8.6584 6.95253 8.85506 6.6935C9.05172 6.43446 9.19206 6.13718 9.26708 5.82072C9.34209 5.50426 9.35011 5.17561 9.29064 4.85586C9.23117 4.53612 9.10551 4.23234 8.92172 3.96401C8.73794 3.69569 8.50009 3.46875 8.22344 3.29775C7.94679 3.12676 7.63745 3.01548 7.31527 2.97107C6.99308 2.92666 6.66517 2.9501 6.35258 3.03987C6.03998 3.12965 5.74961 3.28378 5.50009 3.49237C5.239 3.71143 5.02907 3.98502 4.88506 4.29391C4.74104 4.6028 4.66644 4.93948 4.6665 5.28029C4.6665 5.435 4.72796 5.58337 4.83736 5.69277C4.94675 5.80217 5.09513 5.86362 5.24984 5.86362C5.40455 5.86362 5.55292 5.80217 5.66232 5.69277C5.77171 5.58337 5.83317 5.435 5.83317 5.28029C5.83281 5.10894 5.8702 4.93961 5.94268 4.78434C6.01516 4.62907 6.12096 4.49167 6.25254 4.38191C6.38413 4.27216 6.53828 4.19273 6.70403 4.14928C6.86979 4.10584 7.04308 4.09944 7.21159 4.13054C7.44242 4.17547 7.65458 4.28831 7.82086 4.4546C7.98715 4.62089 8.09999 4.83304 8.14492 5.06387C8.19125 5.30555 8.15974 5.55569 8.05492 5.77832C7.9501 6.00095 7.77738 6.18461 7.56159 6.30287C7.23135 6.49446 6.95385 6.76504 6.75399 7.09033C6.55413 7.41562 6.43816 7.78545 6.4165 8.16662C6.4165 8.32133 6.47796 8.46971 6.58736 8.5791Z" fill="#999999"/>
<path d="M6.67575 10.0149C6.77168 9.95084 6.88446 9.91662 6.99984 9.91662C7.15455 9.91662 7.30292 9.97808 7.41232 10.0875C7.52171 10.1969 7.58317 10.3452 7.58317 10.5C7.58317 10.6153 7.54896 10.7281 7.48486 10.824C7.42076 10.92 7.32966 10.9947 7.22307 11.0389C7.11648 11.083 6.99919 11.0946 6.88603 11.0721C6.77288 11.0496 6.66894 10.994 6.58736 10.9124C6.50578 10.8309 6.45022 10.7269 6.42771 10.6138C6.4052 10.5006 6.41676 10.3833 6.46091 10.2767C6.50506 10.1701 6.57983 10.079 6.67575 10.0149Z" fill="#999999"/>
</g>
<defs>
<clipPath id="clip0_7327_17574">
<rect width="14" height="14" fill="white"/>
</clipPath>
</defs>
</svg>
