<svg width="16" height="16" viewBox="0 0 16 16" fill="none" xmlns="http://www.w3.org/2000/svg">
<path d="M14.6767 12.1156L9.21417 2.65625C8.54698 1.5 7.45479 1.5 6.78604 2.65625L1.3251 12.1156C0.656353 13.2734 1.20323 14.2172 2.5376 14.2172H13.4626C14.797 14.2172 15.3439 13.2734 14.6767 12.1156ZM8.67666 12.1281C8.53135 12.2703 8.36417 12.3563 8.17823 12.3891C8.11885 12.3922 8.06104 12.3938 8.0001 12.3938C7.93917 12.3938 7.88135 12.3922 7.82198 12.3891C7.63448 12.3563 7.46885 12.2688 7.32354 12.1281C7.13448 11.9422 7.04073 11.7203 7.04073 11.4563C7.04073 11.1953 7.13448 10.9688 7.32354 10.7797C7.5126 10.5906 7.73916 10.4953 8.0001 10.4953C8.26104 10.4953 8.4876 10.5906 8.67666 10.7797C8.86573 10.9688 8.95948 11.1953 8.95948 11.4563C8.96104 11.7188 8.86729 11.9438 8.67666 12.1281ZM8.45948 9.92031H7.55792C7.44854 8.58594 7.04229 6.75156 7.04229 6.50156C7.04229 6.21562 7.13135 5.975 7.31104 5.78125C7.49229 5.58594 7.72041 5.4875 8.00166 5.4875C8.28135 5.4875 8.51104 5.58437 8.69229 5.77656C8.87198 5.97031 8.96104 6.21094 8.96104 6.50156C8.96104 6.75156 8.58604 8.58594 8.45948 9.92031Z" fill="#FFAB11"/>
</svg>
