<svg width="148" height="24" viewBox="0 0 148 24" fill="none" xmlns="http://www.w3.org/2000/svg">
<path d="M128.604 24V0H144.033V3.42857H147.462V20.5714H144.033V24H128.604ZM133.747 18.8571H142.319V5.14286H133.747V18.8571Z" fill="white"/>
<path d="M111.449 13.7143V24H106.306V0H120.02V3.42857H123.449V10.2857H121.734V13.7143H118.306V15.4286H120.02V18.8571H123.449V24H118.306V20.5714H114.877V17.1429H113.163V13.7143H111.449ZM111.449 8.57143H118.306V5.14286H111.449V8.57143Z" fill="white"/>
<path d="M84.0068 3.42857H87.4354V0H97.7211V3.42857H101.15V24H96.0068V15.4286H89.1497V24H84.0068V3.42857ZM89.1497 10.2857H96.0068V5.14286H89.1497V10.2857Z" fill="white"/>
<path d="M66.8768 24V20.5714H63.4482V3.42857H66.8768V0H78.8768V5.14286H68.5911V18.8571H78.8768V24H66.8768Z" fill="white"/>
<path d="M42.8637 24V18.8571H53.1494V13.7143H42.8637V10.2857H41.1494V3.42857H44.578V0H56.578V5.14286H46.2923V8.57143H56.578V12H58.2923V20.5714H54.8637V24H42.8637Z" fill="white"/>
<path d="M22.2988 24V0H36.0131V5.14286H27.4417V8.57143H36.0131V13.7143H27.4417V18.8571H36.0131V24H22.2988Z" fill="white"/>
<path d="M0 24V0H13.7143V3.42857H17.1429V10.2857H15.4286V12H17.1429V20.5714H13.7143V24H0ZM5.14286 18.8571H12V13.7143H5.14286V18.8571ZM5.14286 8.57143H12V5.14286H5.14286V8.57143Z" fill="white"/>
</svg>
