<svg width="16" height="16" viewBox="0 0 16 16" fill="none" xmlns="http://www.w3.org/2000/svg">
<g id="Frame" clip-path="url(#clip0_2474_1916)">
<path id="Vector" d="M1.50206 4.40042C1.59426 4.01623 1.78435 3.61105 2.00308 3.28836C2.60915 2.39526 3.42533 1.8291 4.45175 1.59C4.79373 1.51005 5.24877 1.47645 5.81687 1.48882C6.30915 1.49938 6.77086 1.50035 7.20225 1.49186C7.20834 1.49172 7.21439 1.49299 7.21992 1.49555C7.22545 1.49812 7.23032 1.50192 7.23415 1.50666C7.23807 1.51144 7.24087 1.51704 7.24234 1.52304C7.24381 1.52905 7.24391 1.5353 7.24264 1.54135L6.93112 3.01723C6.92614 3.04222 6.91061 3.05496 6.88465 3.05544C6.50786 3.05896 6.0954 3.05787 5.64764 3.05241C5.23482 3.04792 4.91322 3.07873 4.68321 3.14461C3.95619 3.35375 3.43734 3.80357 3.1263 4.49395C2.93463 4.92012 2.87325 5.48386 2.76237 5.95649C2.75594 5.98342 2.73859 5.99688 2.71069 5.99688H1.20922C1.17634 5.99688 1.16312 5.98063 1.16955 5.94824C1.28989 5.33768 1.40077 4.82174 1.50206 4.4003V4.40042ZM14.384 3.9392C14.2762 3.44497 13.8216 3.05629 13.2922 3.05702L11.0989 3.0586C11.0724 3.0586 11.0619 3.04525 11.0675 3.01893L11.3826 1.52801C11.3847 1.51778 11.3903 1.50863 11.3985 1.50217C11.4068 1.49559 11.4171 1.492 11.4276 1.49198C11.9882 1.4995 12.5336 1.49853 13.0638 1.48907C13.4582 1.48203 13.7992 1.524 14.0867 1.61487C14.9464 1.88661 15.6458 2.58609 15.878 3.45759C15.9828 3.84858 16.0115 4.20232 15.9641 4.51882C15.9346 4.71547 15.8345 5.19332 15.6637 5.95212C15.6588 5.97456 15.6448 5.98572 15.6219 5.98572H14.0965C14.0765 5.98572 14.0682 5.97577 14.0718 5.95576C14.1505 5.5302 14.2402 5.10673 14.3406 4.68575C14.4125 4.38477 14.427 4.13584 14.384 3.9392Z" fill="#8CDD00"/>
<path id="Vector_2" d="M5.79542 9.61026C6.02955 9.99166 6.34775 10.127 6.75014 10.0162C7.07016 9.92785 7.26705 9.70815 7.34093 9.3572C7.61509 8.0497 7.89241 6.7325 8.17288 5.4056C8.17943 5.37515 8.19812 5.35986 8.22905 5.35986H9.73125C9.76316 5.35986 9.77589 5.37539 9.76946 5.40633C9.47941 6.77191 9.19311 8.13829 8.91058 9.50544C8.8316 9.88491 8.73601 10.1736 8.62368 10.3719C7.49973 12.3518 4.6392 11.8755 4.17858 9.65454C4.17654 9.64509 4.17823 9.63522 4.18331 9.627C4.18833 9.61891 4.19636 9.61315 4.20563 9.61098L5.66501 9.23286C5.69801 9.22436 5.71426 9.2371 5.71378 9.27107C5.71026 9.40281 5.73743 9.516 5.79542 9.61026Z" fill="#C1C1C1"/>
<path id="Vector_3" d="M5.86208 7.52739C6.06545 7.52739 6.26049 7.44661 6.40429 7.3028C6.5481 7.159 6.62889 6.96395 6.62889 6.76058C6.62889 6.55721 6.5481 6.36217 6.40429 6.21837C6.26049 6.07456 6.06545 5.99377 5.86208 5.99377C5.65871 5.99377 5.46367 6.07456 5.31986 6.21837C5.17606 6.36217 5.09527 6.55721 5.09527 6.76058C5.09527 6.96395 5.17606 7.159 5.31986 7.3028C5.46367 7.44661 5.65871 7.52739 5.86208 7.52739ZM11.5705 7.68765C11.6817 7.68766 11.7919 7.66576 11.8946 7.6232C11.9974 7.58064 12.0908 7.51825 12.1694 7.4396C12.2481 7.36094 12.3104 7.26756 12.353 7.16479C12.3955 7.06202 12.4174 6.95188 12.4174 6.84065C12.4174 6.67312 12.3677 6.50936 12.2746 6.37007C12.1816 6.23078 12.0493 6.12222 11.8945 6.05811C11.7397 5.99401 11.5694 5.97725 11.4051 6.00994C11.2408 6.04263 11.0899 6.12331 10.9714 6.24178C10.853 6.36024 10.7723 6.51117 10.7397 6.67548C10.707 6.83979 10.7238 7.0101 10.7879 7.16487C10.852 7.31963 10.9606 7.45191 11.0999 7.54496C11.2392 7.63802 11.403 7.68767 11.5705 7.68765ZM11.1043 14.5135H8.64448L8.96644 13.0091C8.9719 12.9846 8.98718 12.9723 9.01205 12.9723C9.4125 12.9714 9.77547 12.9723 10.1009 12.9754C10.6157 12.9803 10.991 12.9532 11.2272 12.8937C12.1609 12.6579 12.8364 11.9195 13.0146 10.9633C13.0665 10.6862 13.126 10.4047 13.1928 10.1186C13.1994 10.0906 13.2168 10.0766 13.2453 10.0766H14.7481C14.7797 10.0766 14.7924 10.0922 14.7864 10.1231C14.6893 10.616 14.5829 11.1071 14.4674 11.5961C14.3797 11.9659 14.2083 12.3554 13.9957 12.6826C13.3266 13.7136 12.3629 14.3238 11.1043 14.5135ZM4.50788 14.5149H2.29807C1.42705 14.3616 0.785311 13.9358 0.372852 13.2374C0.0892255 12.7562 -0.038273 12.2504 -0.00976484 11.7203C0.00515648 11.4367 0.0666613 11.0909 0.174386 10.6831C0.176682 10.6722 0.182077 10.6623 0.189915 10.6544C0.197753 10.6466 0.207699 10.6412 0.218544 10.6389L1.83381 10.2218C1.8369 10.221 1.84016 10.221 1.84327 10.2217C1.84636 10.2225 1.84921 10.224 1.85152 10.2262C1.85383 10.2284 1.85556 10.2311 1.85653 10.2342C1.85751 10.2372 1.8577 10.2404 1.8571 10.2436C1.7714 10.677 1.68025 11.1094 1.58366 11.5405C1.52725 11.7906 1.54327 12.0253 1.6317 12.2445C1.82629 12.7257 2.20551 12.9683 2.76912 12.9723C3.38963 12.9763 4.06885 12.976 4.80667 12.9715C4.80961 12.9716 4.81249 12.9723 4.81516 12.9736C4.81778 12.9748 4.82006 12.9766 4.82183 12.9789C4.82365 12.9811 4.82493 12.9836 4.82556 12.9864C4.82619 12.9892 4.82616 12.992 4.82547 12.9948L4.50788 14.5149Z" fill="#8CDD00"/>
</g>
<defs>
<clipPath id="clip0_2474_1916">
<rect width="16" height="16" fill="white"/>
</clipPath>
</defs>
</svg>
